<?xml version="1.0" encoding="UTF-8" standalone="no"?>

<svg
   xmlns:dc="http://purl.org/dc/elements/1.1/"
   xmlns:cc="http://creativecommons.org/ns#"
   xmlns:rdf="http://www.w3.org/1999/02/22-rdf-syntax-ns#"
   xmlns:svg="http://www.w3.org/2000/svg"
   xmlns="http://www.w3.org/2000/svg"
   xmlns:sodipodi="http://sodipodi.sourceforge.net/DTD/sodipodi-0.dtd"
   width="590.4021mm"
   height="251.92496mm"
   viewBox="0 0 590.4021 251.92496"
   version="1.1"
   id="svg8"
   sodipodi:docname="arqus-alliance.svg">
  <defs
     id="defs2">
    <clipPath
       clipPathUnits="userSpaceOnUse"
       id="clipPath28">
      <path
         d="M 0,1560 H 2722 V 0 H 0 Z"
         id="path26"
          />
    </clipPath>
    <clipPath
       clipPathUnits="userSpaceOnUse"
       id="clipPath44">
      <path
         d="M 0,1560 H 2722 V 0 H 0 Z"
         id="path42"
          />
    </clipPath>
    <clipPath
       clipPathUnits="userSpaceOnUse"
       id="clipPath64">
      <path
         d="M 0,1560 H 2722 V 0 H 0 Z"
         id="path62"
          />
    </clipPath>
    <clipPath
       clipPathUnits="userSpaceOnUse"
       id="clipPath166">
      <path
         d="M 0,1560 H 2722 V 0 H 0 Z"
         id="path164" />
    </clipPath>
  </defs>
  <sodipodi:namedview
     id="base"
     pagecolor="#FFFFFF"
     bordercolor="#666666"
     borderopacity="1.0"    
     showgrid="false"    
     />
  <metadata
     id="metadata5">
    <rdf:RDF>
      <cc:Work
         rdf:about="">
        <dc:format>image/svg+xml</dc:format>
        <dc:type
           rdf:resource="http://purl.org/dc/dcmitype/StillImage" />
        <dc:title></dc:title>
      </cc:Work>
    </rdf:RDF>
  </metadata>
  <g
     id="layer1"
     transform="translate(449.44913,93.192661)">
    <g
       id="g10"
       transform="matrix(0.35277777,0,0,-0.35277777,-629.05316,292.46428)">
      <g
         id="g22">
        <g
           id="g24"
           clip-path="url(#clipPath28)">
          <g
             id="g30"
             transform="translate(1091.1421,791.5459)">
            <path
               d="m 0,0 c -18.996,0.001 -37.993,0.071 -56.989,-0.069 -3.117,-0.023 -4.113,0.722 -4.405,4.001 -12.159,136.443 74.706,256.008 204.567,288.061 66.77,16.481 132.59,12.472 195.569,-16.623 80.031,-36.974 130.677,-98.597 150.777,-184.668 6.635,-28.413 7.39,-57.347 5.317,-86.396 -0.278,-3.889 -1.902,-4.387 -5.279,-4.377 -37.326,0.113 -74.652,0.133 -111.978,-0.02 -4.048,-0.017 -4.735,0.881 -4.224,4.916 8.98,70.878 -21.392,140.369 -87.458,173.549 -52.747,26.49 -128.777,21.9 -177.352,-25.66 C 82.792,127.498 67.253,96.729 61.046,61.282 57.692,42.125 57.802,22.85 60.383,3.627 60.859,0.079 59.808,-0.063 56.989,-0.049 37.993,0.043 18.997,-0.001 0,0"
               style="fill:#FFFFFF;fill-opacity:1;fill-rule:nonzero;stroke:none"
               id="path32"
                />
          </g>
          <g
             id="g34"
             transform="translate(1573.0508,553.4678)">
            <path
               d="m 0,0 c -37.147,11.573 -74.298,23.136 -111.436,34.74 -2.748,0.859 -5.085,1.313 -7.965,-0.36 -34.726,-20.161 -72.013,-32.45 -112.038,-36.54 -73.876,-7.549 -142.168,7.402 -203.034,50.969 -55.195,39.507 -89.36,93.095 -104.089,159.251 -0.878,3.943 -0.174,5.121 4.086,5.104 38.166,-0.153 76.333,-0.175 114.498,0.037 4.216,0.024 5.59,-1.552 6.915,-5.138 18.465,-50.01 52.708,-84.82 104.087,-98.893 59.613,-16.327 113.57,-3.894 157.745,41.391 16.025,16.427 27.055,36.214 34.493,57.919 1.11,3.243 2.375,4.719 6.191,4.702 37.999,-0.174 75.999,-0.175 113.998,-0.01 4.594,0.019 5.094,-1.371 4.183,-5.445 -6.229,-27.859 -16.821,-53.942 -31.385,-78.445 -1.577,-2.652 -2.308,-5.051 -1.547,-8.386 C -16.348,81.677 -7.631,42.403 1.146,3.146 1.348,1.884 2.492,0.279 0,0"
               style="fill:#FFFFFF;fill-opacity:1;fill-rule:nonzero;stroke:none"
               id="path36"
                />
          </g>
        </g>
      </g>
      <g
         id="g38">
        <g
           id="g40"
           clip-path="url(#clipPath44)">
          <g
             id="g46"
             transform="translate(611.7051,644.9521)">
            <path
               d="m 0,0 c 17.544,0 33.569,4.204 48.071,12.622 14.502,8.413 24.884,18.53 31.153,30.347 V 90.771 H 22.827 c -21.665,0 -38.806,-5.014 -51.428,-15.039 -12.622,-10.029 -18.933,-22.202 -18.933,-36.523 0,-12.715 3.936,-22.425 11.816,-29.138 C -27.842,3.356 -15.937,0 0,0 m 85.132,-38.672 c -1.611,7.876 -2.866,14.946 -3.76,21.216 -0.898,6.265 -1.523,12.529 -1.88,18.799 C 69.287,-11.729 56.531,-22.604 41.223,-31.286 25.916,-39.969 9.576,-44.312 -7.788,-44.312 c -30.259,0 -53.266,7.385 -69.019,22.157 -15.756,14.769 -23.632,35.583 -23.632,62.438 0,27.569 11.145,48.831 33.435,63.782 22.29,14.947 52.858,22.424 91.711,22.424 h 54.517 v 33.838 c 0,17.007 -5.371,30.481 -16.114,40.418 -10.742,9.936 -25.693,14.904 -44.848,14.904 -13.252,0 -24.934,-1.703 -35.047,-5.102 -10.117,-3.403 -18.308,-8.057 -24.572,-13.965 l -5.64,-30.615 h -40.82 v 56.396 c 13.247,10.562 29.272,19.022 48.071,25.379 18.799,6.353 39.209,9.533 61.23,9.533 32.94,0 59.62,-8.417 80.03,-25.244 20.41,-16.831 30.615,-40.912 30.615,-72.241 V 19.873 c 0,-3.76 0.042,-7.432 0.134,-11.011 0.089,-3.584 0.311,-7.163 0.672,-10.742 l 21.484,-2.954 v -33.838 z"
               style="fill:#FFFFFF;fill-opacity:1;fill-rule:nonzero;stroke:none"
               id="path48"
                />
          </g>
          <g
             id="g50"
             transform="translate(810.2373,862.75)">
            <path
               d="m 0,0 v 34.106 h 91.04 l 5.103,-42.163 c 8.232,14.859 18.396,26.495 30.481,34.912 12.084,8.414 25.915,12.623 41.491,12.623 4.116,0 8.367,-0.315 12.757,-0.94 4.385,-0.63 7.741,-1.301 10.07,-2.015 l -6.982,-49.145 -30.078,1.611 c -13.965,0 -25.694,-3.269 -35.181,-9.802 -9.492,-6.538 -16.831,-15.71 -22.021,-27.527 v -166.772 l 43.774,-7.52 V -256.47 H 0 v 33.838 l 43.774,7.52 V -7.52 Z"
               style="fill:#FFFFFF;fill-opacity:1;fill-rule:nonzero;stroke:none"
               id="path52"
                />
          </g>
        </g>
      </g>
      <g
         id="g54"
         transform="translate(509.1138,404.71)">
        <path
           d="M 0,0 V 7.389 L 9.559,9.031 V 76.295 L 0,77.938 v 7.447 H 65.563 V 64.859 h -9.91 L 54.714,76.295 H 21.112 V 48.674 h 32.664 v -9.09 H 21.112 V 9.031 h 34.306 l 0.938,11.436 h 9.852 V 0 Z"
           style="fill:#FFFFFF;fill-opacity:1;fill-rule:nonzero;stroke:none"
           id="path56"
            />
      </g>
      <g
         id="g58">
        <g
           id="g60"
           clip-path="url(#clipPath64)">
          <g
             id="g66"
             transform="translate(631.5596,414.0928)">
            <path
               d="m 0,0 c -1.994,-3.401 -4.565,-6.021 -7.712,-7.858 -3.147,-1.837 -6.773,-2.756 -10.878,-2.756 -6.882,0 -12.257,2.208 -16.127,6.627 -3.87,4.417 -5.806,11.298 -5.806,20.642 v 28.324 l -7.271,1.643 v 7.447 h 7.271 11.553 V 16.537 c 0,-6.764 0.997,-11.416 2.991,-13.957 1.994,-2.541 5.102,-3.811 9.324,-3.811 4.105,0 7.496,0.83 10.175,2.492 2.677,1.661 4.7,4.017 6.069,7.066 v 36.652 l -8.503,1.643 v 7.447 h 8.503 11.553 V -0.352 l 7.272,-1.642 V -9.383 H 0.762 Z"
               style="fill:#FFFFFF;fill-opacity:1;fill-rule:nonzero;stroke:none"
               id="path68"
                />
          </g>
          <g
             id="g70"
             transform="translate(659.1694,460.7148)">
            <path
               d="m 0,0 v 7.447 h 19.88 l 1.114,-9.207 c 1.798,3.245 4.017,5.785 6.656,7.624 2.64,1.837 5.66,2.756 9.061,2.756 0.899,0 1.827,-0.068 2.785,-0.205 0.958,-0.138 1.691,-0.284 2.199,-0.44 l -1.524,-10.732 -6.568,0.352 c -3.05,0 -5.611,-0.713 -7.683,-2.14 -2.072,-1.428 -3.675,-3.431 -4.808,-6.012 v -36.417 l 9.558,-1.642 v -7.389 H 0 v 7.389 l 9.559,1.642 v 45.331 z"
               style="fill:#FFFFFF;fill-opacity:1;fill-rule:nonzero;stroke:none"
               id="path72"
                />
          </g>
          <g
             id="g74"
             transform="translate(718.7808,435.7324)">
            <path
               d="m 0,0 c 0,-6.725 1.417,-12.276 4.252,-16.655 2.834,-4.379 7.046,-6.568 12.637,-6.568 5.473,0 9.637,2.189 12.491,6.568 2.854,4.379 4.282,9.93 4.282,16.655 v 1.29 c 0,6.646 -1.428,12.178 -4.282,16.596 -2.854,4.418 -7.057,6.627 -12.608,6.627 -5.552,0 -9.735,-2.209 -12.55,-6.627 C 1.408,13.468 0,7.936 0,1.29 Z m -11.553,1.29 c 0,9.383 2.541,17.114 7.624,23.193 5.082,6.079 11.982,9.12 20.701,9.12 8.757,0 15.687,-3.031 20.789,-9.09 5.102,-6.061 7.653,-13.801 7.653,-23.223 V 0 c 0,-9.462 -2.542,-17.203 -7.624,-23.223 -5.082,-6.021 -11.983,-9.031 -20.701,-9.031 -8.796,0 -15.736,3.021 -20.818,9.061 -5.083,6.04 -7.624,13.77 -7.624,23.193 z"
               style="fill:#FFFFFF;fill-opacity:1;fill-rule:nonzero;stroke:none"
               id="path76"
                />
          </g>
          <g
             id="g78"
             transform="translate(824.7788,435.2627)">
            <path
               d="m 0,0 c 0,7.232 -1.408,13.156 -4.223,17.77 -2.814,4.612 -6.998,6.919 -12.549,6.919 -3.284,0 -6.099,-0.743 -8.445,-2.228 -2.345,-1.486 -4.242,-3.519 -5.688,-6.099 v -30.905 c 1.446,-2.62 3.332,-4.643 5.659,-6.069 2.326,-1.428 5.19,-2.141 8.591,-2.141 5.473,0 9.618,1.993 12.432,5.982 C -1.408,-12.784 0,-7.604 0,-1.231 Z m -52.017,-47.501 9.559,1.643 V 23.81 l -9.559,1.642 v 7.447 h 19.47 l 1.055,-7.741 c 2.112,2.893 4.682,5.103 7.712,6.627 3.03,1.525 6.539,2.287 10.527,2.287 7.857,0 13.966,-3.118 18.326,-9.353 C 9.431,18.482 11.611,10.243 11.611,0 v -1.231 c 0,-9.149 -2.19,-16.529 -6.568,-22.138 -4.379,-5.61 -10.419,-8.415 -18.121,-8.415 -3.909,0 -7.34,0.655 -10.292,1.965 -2.952,1.308 -5.463,3.254 -7.535,5.835 v -21.874 l 9.559,-1.643 v -7.447 h -30.671 z"
               style="fill:#FFFFFF;fill-opacity:1;fill-rule:nonzero;stroke:none"
               id="path80"
                />
          </g>
          <g
             id="g82"
             transform="translate(874.3799,460.2451)">
            <path
               d="m 0,0 c -3.871,0 -7.174,-1.633 -9.911,-4.896 -2.736,-3.265 -4.418,-7.36 -5.043,-12.287 l 0.117,-0.293 h 29.263 v 1.525 c 0,4.535 -1.212,8.328 -3.635,11.377 C 8.366,-1.524 4.77,0 0,0 m 1.759,-56.767 c -8.836,0 -15.863,2.942 -21.082,8.827 -5.219,5.882 -7.829,13.516 -7.829,22.899 v 2.581 c 0,9.03 2.688,16.546 8.064,22.548 C -13.713,6.089 -7.351,9.09 0,9.09 c 8.522,0 14.983,-2.58 19.382,-7.741 4.398,-5.161 6.597,-12.042 6.597,-20.643 v -7.213 h -41.167 l -0.176,-0.293 c 0.117,-6.098 1.661,-11.113 4.633,-15.042 2.97,-3.929 7.134,-5.893 12.49,-5.893 3.909,0 7.34,0.556 10.292,1.671 2.952,1.114 5.503,2.648 7.653,4.603 l 4.516,-7.506 c -2.268,-2.19 -5.269,-4.037 -9.002,-5.542 -3.734,-1.505 -8.22,-2.258 -13.459,-2.258"
               style="fill:#FFFFFF;fill-opacity:1;fill-rule:nonzero;stroke:none"
               id="path84"
                />
          </g>
          <g
             id="g86"
             transform="translate(934.9819,413.1543)">
            <path
               d="m 0,0 c 3.831,0 7.33,0.918 10.497,2.757 3.167,1.837 5.434,4.046 6.803,6.626 V 19.821 H 4.984 c -4.731,0 -8.473,-1.094 -11.23,-3.283 -2.756,-2.19 -4.134,-4.849 -4.134,-7.975 0,-2.777 0.859,-4.898 2.58,-6.364 C -6.08,0.733 -3.48,0 0,0 m 18.59,-8.444 c -0.352,1.719 -0.626,3.263 -0.821,4.632 -0.196,1.369 -0.333,2.737 -0.411,4.106 -2.228,-2.855 -5.014,-5.23 -8.357,-7.126 -3.342,-1.896 -6.91,-2.844 -10.702,-2.844 -6.607,0 -11.632,1.613 -15.071,4.838 -3.441,3.226 -5.161,7.771 -5.161,13.635 0,6.02 2.434,10.663 7.301,13.928 4.868,3.263 11.543,4.896 20.027,4.896 H 17.3 v 7.39 c 0,3.714 -1.173,6.655 -3.519,8.825 -2.346,2.17 -5.611,3.255 -9.794,3.255 -2.893,0 -5.444,-0.372 -7.653,-1.114 -2.209,-0.744 -3.997,-1.759 -5.365,-3.049 l -1.232,-6.686 h -8.914 v 12.315 c 2.893,2.306 6.392,4.154 10.498,5.542 4.105,1.387 8.561,2.082 13.37,2.082 7.193,0 13.019,-1.838 17.476,-5.513 4.457,-3.675 6.686,-8.934 6.686,-15.774 V 4.34 c 0,-0.821 0.008,-1.623 0.029,-2.404 0.019,-0.783 0.068,-1.565 0.146,-2.346 l 4.692,-0.646 v -7.388 z"
               style="fill:#FFFFFF;fill-opacity:1;fill-rule:nonzero;stroke:none"
               id="path88"
                />
          </g>
          <g
             id="g90"
             transform="translate(976.4687,412.0986)">
            <path
               d="M 0,0 9.559,1.643 V 46.974 L 0,48.616 v 7.447 h 19.88 l 0.821,-9.441 c 2.111,3.361 4.759,5.972 7.946,7.829 3.186,1.857 6.812,2.785 10.879,2.785 6.841,0 12.139,-2.004 15.892,-6.01 3.753,-4.008 5.63,-10.196 5.63,-18.561 V 1.643 L 70.606,0 V -7.389 H 39.936 V 0 l 9.559,1.643 v 30.788 c 0,5.59 -1.105,9.558 -3.313,11.904 -2.209,2.346 -5.581,3.519 -10.116,3.519 -3.324,0 -6.266,-0.802 -8.826,-2.405 -2.561,-1.603 -4.604,-3.793 -6.128,-6.568 V 1.643 L 30.67,0 V -7.389 H 0 Z"
               style="fill:#FFFFFF;fill-opacity:1;fill-rule:nonzero;stroke:none"
               id="path92"
                />
          </g>
          <g
             id="g94"
             transform="translate(1114.1392,490.0947)">
            <path
               d="M 0,0 V -7.447 L -9.559,-9.09 v -48.791 c 0,-6.451 1.837,-11.348 5.513,-14.69 3.674,-3.343 8.522,-5.014 14.543,-5.014 6.334,0 11.436,1.661 15.306,4.984 3.871,3.323 5.806,8.23 5.806,14.72 V -9.09 L 22.05,-7.447 V 0 h 21.112 9.559 V -7.447 L 43.162,-9.09 v -48.791 c 0,-9.265 -3.02,-16.372 -9.061,-21.317 -6.04,-4.947 -13.908,-7.418 -23.604,-7.418 -9.422,0 -17.046,2.471 -22.871,7.418 -5.826,4.945 -8.737,12.052 -8.737,21.317 V -9.09 l -9.559,1.643 V 0 h 9.559 z"
               style="fill:#FFFFFF;fill-opacity:1;fill-rule:nonzero;stroke:none"
               id="path96"
                />
          </g>
          <g
             id="g98"
             transform="translate(1173.4688,412.0986)">
            <path
               d="M 0,0 9.559,1.643 V 46.974 L 0,48.616 v 7.447 h 19.88 l 0.821,-9.441 c 2.111,3.361 4.759,5.972 7.946,7.829 3.186,1.857 6.812,2.785 10.879,2.785 6.841,0 12.139,-2.004 15.892,-6.01 3.753,-4.008 5.63,-10.196 5.63,-18.561 V 1.643 L 70.606,0 V -7.389 H 39.936 V 0 l 9.559,1.643 v 30.788 c 0,5.59 -1.105,9.558 -3.313,11.904 -2.209,2.346 -5.581,3.519 -10.116,3.519 -3.324,0 -6.266,-0.802 -8.826,-2.405 -2.561,-1.603 -4.604,-3.793 -6.128,-6.568 V 1.643 L 30.67,0 V -7.389 H 0 Z"
               style="fill:#FFFFFF;fill-opacity:1;fill-rule:nonzero;stroke:none"
               id="path100"
                />
          </g>
          <path
             d="m 1273.281,484.406 h -11.553 v 11.787 h 11.553 z m -21.112,-72.307 9.56,1.642 v 45.331 l -9.56,1.643 v 7.447 h 21.112 v -54.421 l 9.559,-1.642 v -7.389 h -30.671 z"
             style="fill:#FFFFFF;fill-opacity:1;fill-rule:nonzero;stroke:none"
             id="path102"
              />
          <g
             id="g104"
             transform="translate(1312.9263,460.7148)">
            <path
               d="M 0,0 -7.624,-1.173 5.454,-37.298 6.509,-41.872 H 6.861 L 7.976,-37.298 20.643,-1.173 12.96,0 V 7.447 H 37.473 V 0 L 32.254,-0.88 10.966,-56.005 H 2.229 L -19.294,-0.88 -24.513,0 V 7.447 H 0 Z"
               style="fill:#FFFFFF;fill-opacity:1;fill-rule:nonzero;stroke:none"
               id="path106"
                />
          </g>
          <g
             id="g108"
             transform="translate(1384.3799,460.2451)">
            <path
               d="m 0,0 c -3.87,0 -7.175,-1.633 -9.91,-4.896 -2.737,-3.265 -4.419,-7.36 -5.044,-12.287 l 0.117,-0.293 h 29.264 v 1.525 c 0,4.535 -1.213,8.328 -3.637,11.377 C 8.366,-1.524 4.77,0 0,0 m 1.76,-56.767 c -8.836,0 -15.864,2.942 -21.083,8.827 -5.219,5.882 -7.829,13.516 -7.829,22.899 v 2.581 c 0,9.03 2.688,16.546 8.064,22.548 C -13.713,6.089 -7.351,9.09 0,9.09 c 8.522,0 14.983,-2.58 19.382,-7.741 4.398,-5.161 6.597,-12.042 6.597,-20.643 v -7.213 h -41.167 l -0.176,-0.293 c 0.117,-6.098 1.661,-11.113 4.633,-15.042 2.97,-3.929 7.133,-5.893 12.491,-5.893 3.908,0 7.339,0.556 10.292,1.671 2.951,1.114 5.502,2.648 7.652,4.603 l 4.516,-7.506 c -2.268,-2.19 -5.269,-4.037 -9.002,-5.542 -3.734,-1.505 -8.22,-2.258 -13.458,-2.258"
               style="fill:#FFFFFF;fill-opacity:1;fill-rule:nonzero;stroke:none"
               id="path110"
                />
          </g>
          <g
             id="g112"
             transform="translate(1422.1699,460.7148)">
            <path
               d="m 0,0 v 7.447 h 19.88 l 1.114,-9.207 c 1.798,3.245 4.017,5.785 6.655,7.624 2.64,1.837 5.66,2.756 9.061,2.756 0.899,0 1.827,-0.068 2.786,-0.205 0.957,-0.138 1.691,-0.284 2.199,-0.44 L 40.17,-2.757 33.603,-2.405 c -3.05,0 -5.612,-0.713 -7.683,-2.14 -2.072,-1.428 -3.676,-3.431 -4.809,-6.012 v -36.417 l 9.559,-1.642 v -7.389 H 0 v 7.389 l 9.559,1.642 v 45.331 z"
               style="fill:#FFFFFF;fill-opacity:1;fill-rule:nonzero;stroke:none"
               id="path114"
                />
          </g>
          <g
             id="g116"
             transform="translate(1520.7266,448.2236)">
            <path
               d="m 0,0 h -8.68 l -1.877,7.623 c -1.407,1.329 -3.176,2.395 -5.306,3.196 -2.132,0.801 -4.545,1.202 -7.242,1.202 -4.106,0 -7.156,-0.899 -9.149,-2.697 -1.994,-1.799 -2.991,-3.969 -2.991,-6.51 0,-2.502 0.88,-4.476 2.639,-5.922 1.759,-1.448 5.336,-2.738 10.732,-3.871 8.014,-1.72 13.976,-4.056 17.886,-7.007 3.909,-2.953 5.864,-6.911 5.864,-11.876 0,-5.63 -2.277,-10.185 -6.832,-13.664 -4.555,-3.48 -10.507,-5.219 -17.856,-5.219 -4.809,0 -9.129,0.557 -12.96,1.671 -3.832,1.114 -7.253,2.727 -10.263,4.839 l -0.059,14.484 h 8.679 l 2.17,-8.503 c 1.329,-1.213 3.138,-2.092 5.425,-2.64 2.287,-0.547 4.622,-0.82 7.008,-0.82 4.104,0 7.32,0.83 9.646,2.492 2.326,1.661 3.489,3.841 3.489,6.539 0,2.54 -0.968,4.633 -2.902,6.275 -1.936,1.641 -5.601,3.068 -10.996,4.281 -7.702,1.681 -13.508,3.968 -17.417,6.861 -3.91,2.893 -5.864,6.803 -5.864,11.729 0,5.16 2.199,9.558 6.597,13.194 4.399,3.636 10.115,5.454 17.154,5.454 4.808,0 9.127,-0.626 12.959,-1.877 3.832,-1.251 7.017,-2.99 9.559,-5.218 z"
               style="fill:#FFFFFF;fill-opacity:1;fill-rule:nonzero;stroke:none"
               id="path118"
                />
          </g>
          <path
             d="m 1554.281,484.406 h -11.553 v 11.787 h 11.553 z m -21.111,-72.307 9.559,1.642 v 45.331 l -9.559,1.643 v 7.447 h 21.111 v -54.421 l 9.559,-1.642 v -7.389 h -30.67 z"
             style="fill:#FFFFFF;fill-opacity:1;fill-rule:nonzero;stroke:none"
             id="path120"
              />
          <g
             id="g122"
             transform="translate(1592.3428,483.4678)">
            <path
               d="m 0,0 v -15.306 h 12.021 v -8.561 H 0 v -38.529 c 0,-2.972 0.616,-5.064 1.848,-6.275 1.231,-1.213 2.863,-1.818 4.896,-1.818 1.016,0 2.159,0.088 3.431,0.263 1.269,0.177 2.336,0.362 3.196,0.558 l 1.583,-7.917 c -1.095,-0.704 -2.697,-1.28 -4.808,-1.729 -2.112,-0.45 -4.223,-0.675 -6.334,-0.675 -4.692,0 -8.425,1.417 -11.201,4.252 -2.776,2.834 -4.164,7.28 -4.164,13.341 v 38.529 h -10.028 v 8.561 h 10.028 V 0 Z"
               style="fill:#FFFFFF;fill-opacity:1;fill-rule:nonzero;stroke:none"
               id="path124"
                />
          </g>
          <g
             id="g126"
             transform="translate(1676.4551,460.7148)">
            <path
               d="M 0,0 -5.688,-0.88 -29.85,-65.739 c -1.603,-4.262 -3.91,-7.976 -6.92,-11.143 -3.01,-3.167 -7.057,-4.75 -12.139,-4.75 -0.9,0 -2.072,0.109 -3.519,0.322 -1.446,0.216 -2.56,0.421 -3.343,0.617 l 1.173,9.089 c -0.234,0.04 0.46,0 2.082,-0.118 1.622,-0.117 2.649,-0.175 3.079,-0.175 2.463,0 4.458,1.065 5.982,3.196 1.524,2.131 2.853,4.584 3.988,7.359 l 2.756,6.569 L -57.646,-0.938 -63.452,0 v 7.447 h 25.627 V 0 l -7.154,-1.173 10.965,-31.316 2.112,-8.093 h 0.351 L -18.355,-1.173 -25.568,0 V 7.447 H 0 Z"
               style="fill:#FFFFFF;fill-opacity:1;fill-rule:nonzero;stroke:none"
               id="path128"
                />
          </g>
          <g
             id="g130"
             transform="translate(1739.5625,438.6055)">
            <path
               d="M 0,0 H 27.093 L 13.84,36.652 h -0.353 z m -27.387,-26.507 6.333,0.88 29.85,77.116 h 9.911 l 29.321,-77.116 6.276,-0.88 v -7.389 H 29.79 v 7.389 l 6.451,1.114 -5.63,15.717 H -3.578 l -5.806,-15.717 6.451,-1.114 v -7.389 h -24.454 z"
               style="fill:#FFFFFF;fill-opacity:1;fill-rule:nonzero;stroke:none"
               id="path132"
                />
          </g>
          <g
             id="g134"
             transform="translate(1800.5859,488.7461)">
            <path
               d="m 0,0 v 7.447 h 21.111 v -82.452 l 9.56,-1.642 v -7.389 H 0 v 7.389 l 9.559,1.642 v 73.362 z"
               style="fill:#FFFFFF;fill-opacity:1;fill-rule:nonzero;stroke:none"
               id="path136"
                />
          </g>
          <g
             id="g138"
             transform="translate(1838.5859,488.7461)">
            <path
               d="m 0,0 v 7.447 h 21.111 v -82.452 l 9.56,-1.642 v -7.389 H 0 v 7.389 l 9.559,1.642 v 73.362 z"
               style="fill:#FFFFFF;fill-opacity:1;fill-rule:nonzero;stroke:none"
               id="path140"
                />
          </g>
          <path
             d="m 1899.281,484.406 h -11.553 v 11.787 h 11.553 z m -21.111,-72.307 9.559,1.642 v 45.331 l -9.559,1.643 v 7.447 h 21.111 v -54.421 l 9.559,-1.642 v -7.389 h -30.67 z"
             style="fill:#FFFFFF;fill-opacity:1;fill-rule:nonzero;stroke:none"
             id="path142"
              />
          <g
             id="g144"
             transform="translate(1939.9814,413.1543)">
            <path
               d="m 0,0 c 3.831,0 7.331,0.918 10.497,2.757 3.167,1.837 5.434,4.046 6.803,6.626 V 19.821 H 4.985 c -4.731,0 -8.474,-1.094 -11.23,-3.283 -2.757,-2.19 -4.135,-4.849 -4.135,-7.975 0,-2.777 0.859,-4.898 2.581,-6.364 C -6.079,0.733 -3.479,0 0,0 m 18.59,-8.444 c -0.352,1.719 -0.625,3.263 -0.82,4.632 -0.197,1.369 -0.333,2.737 -0.412,4.106 C 15.13,-2.561 12.345,-4.936 9.002,-6.832 5.659,-8.728 2.091,-9.676 -1.7,-9.676 c -6.608,0 -11.632,1.613 -15.071,4.838 -3.442,3.226 -5.162,7.771 -5.162,13.635 0,6.02 2.434,10.663 7.302,13.928 4.867,3.263 11.542,4.896 20.027,4.896 H 17.3 v 7.39 c 0,3.714 -1.173,6.655 -3.519,8.825 -2.345,2.17 -5.61,3.255 -9.793,3.255 -2.893,0 -5.445,-0.372 -7.653,-1.114 -2.209,-0.744 -3.998,-1.759 -5.366,-3.049 l -1.232,-6.686 h -8.913 v 12.315 c 2.893,2.306 6.392,4.154 10.497,5.542 4.105,1.387 8.562,2.082 13.37,2.082 7.194,0 13.02,-1.838 17.477,-5.513 4.456,-3.675 6.685,-8.934 6.685,-15.774 V 4.34 c 0,-0.821 0.009,-1.623 0.029,-2.404 0.019,-0.783 0.068,-1.565 0.146,-2.346 l 4.693,-0.646 v -7.388 z"
               style="fill:#FFFFFF;fill-opacity:1;fill-rule:nonzero;stroke:none"
               id="path146"
                />
          </g>
          <g
             id="g148"
             transform="translate(1981.4688,412.0986)">
            <path
               d="M 0,0 9.559,1.643 V 46.974 L 0,48.616 v 7.447 h 19.88 l 0.821,-9.441 c 2.111,3.361 4.759,5.972 7.946,7.829 3.186,1.857 6.812,2.785 10.878,2.785 6.842,0 12.14,-2.004 15.893,-6.01 3.753,-4.008 5.63,-10.196 5.63,-18.561 V 1.643 L 70.606,0 V -7.389 H 39.937 V 0 l 9.558,1.643 v 30.788 c 0,5.59 -1.105,9.558 -3.313,11.904 -2.209,2.346 -5.581,3.519 -10.117,3.519 -3.323,0 -6.265,-0.802 -8.825,-2.405 -2.561,-1.603 -4.603,-3.793 -6.129,-6.568 V 1.643 L 30.671,0 V -7.389 H 0 Z"
               style="fill:#FFFFFF;fill-opacity:1;fill-rule:nonzero;stroke:none"
               id="path150"
                />
          </g>
          <g
             id="g152"
             transform="translate(2088.6699,412.5098)">
            <path
               d="m 0,0 c 3.831,0 7.203,1.182 10.116,3.548 2.912,2.365 4.369,5.267 4.369,8.708 h 10.38 l 0.117,-0.352 C 25.178,6.431 22.744,1.573 17.682,-2.669 12.618,-6.911 6.724,-9.031 0,-9.031 c -9.227,0 -16.273,3.01 -21.141,9.031 -4.867,6.02 -7.3,13.585 -7.3,22.694 v 2.464 c 0,9.03 2.442,16.567 7.33,22.607 4.886,6.04 11.923,9.06 21.111,9.06 5.082,0 9.647,-0.841 13.693,-2.521 4.047,-1.682 7.399,-3.989 10.058,-6.92 L 24.278,33.31 H 15.071 L 12.55,43.278 C 11.181,44.607 9.422,45.683 7.272,46.504 5.121,47.325 2.698,47.735 0,47.735 c -6.061,0 -10.39,-2.179 -12.989,-6.539 -2.601,-4.359 -3.9,-9.705 -3.9,-16.038 v -2.464 c 0,-6.49 1.29,-11.895 3.87,-16.215 C -10.438,2.159 -6.099,0 0,0"
               style="fill:#FFFFFF;fill-opacity:1;fill-rule:nonzero;stroke:none"
               id="path154"
                />
          </g>
          <g
             id="g156"
             transform="translate(2152.3799,460.2451)">
            <path
               d="m 0,0 c -3.87,0 -7.175,-1.633 -9.91,-4.896 -2.737,-3.265 -4.419,-7.36 -5.044,-12.287 l 0.117,-0.293 h 29.264 v 1.525 c 0,4.535 -1.213,8.328 -3.637,11.377 C 8.366,-1.524 4.77,0 0,0 m 1.76,-56.767 c -8.836,0 -15.864,2.942 -21.083,8.827 -5.219,5.882 -7.828,13.516 -7.828,22.899 v 2.581 c 0,9.03 2.687,16.546 8.063,22.548 C -13.713,6.089 -7.351,9.09 0,9.09 c 8.522,0 14.983,-2.58 19.382,-7.741 4.398,-5.161 6.597,-12.042 6.597,-20.643 v -7.213 h -41.167 l -0.176,-0.293 c 0.117,-6.098 1.661,-11.113 4.633,-15.042 2.97,-3.929 7.133,-5.893 12.491,-5.893 3.908,0 7.339,0.556 10.292,1.671 2.951,1.114 5.502,2.648 7.652,4.603 l 4.516,-7.506 c -2.268,-2.19 -5.269,-4.037 -9.002,-5.542 -3.734,-1.505 -8.22,-2.258 -13.458,-2.258"
               style="fill:#FFFFFF;fill-opacity:1;fill-rule:nonzero;stroke:none"
               id="path158"
                />
          </g>
        </g>
      </g>
      <g
         id="g160">
        <g
           id="g162"
           clip-path="url(#clipPath166)">
          <g
             id="g168"
             transform="translate(1842.0986,649.249)">
            <path
               d="m 0,0 c -9.131,-15.576 -20.905,-27.573 -35.315,-35.986 -14.414,-8.413 -31.018,-12.622 -49.817,-12.622 -31.514,0 -56.128,10.112 -73.852,30.346 -17.725,20.23 -26.587,51.739 -26.587,94.532 v 129.711 l -33.301,7.52 v 34.106 h 33.301 52.905 V 75.732 c 0,-30.976 4.565,-52.28 13.696,-63.916 9.131,-11.64 23.365,-17.456 42.7,-17.456 18.799,0 34.33,3.802 46.595,11.414 12.261,7.608 21.526,18.396 27.795,32.361 v 167.846 l -38.94,7.52 v 34.106 H -1.88 51.025 V -1.611 l 33.301,-7.52 V -42.969 H 3.491 Z"
               style="fill:#FFFFFF;fill-opacity:1;fill-rule:nonzero;stroke:none"
               id="path170"
                />
          </g>
          <g
             id="g172"
             transform="translate(2174.1006,805.5479)">
            <path
               d="m 0,0 h -39.746 l -8.594,34.912 c -6.445,6.085 -14.548,10.964 -24.304,14.636 -9.76,3.668 -20.813,5.506 -33.167,5.506 -18.798,0 -32.763,-4.121 -41.894,-12.354 -9.131,-8.237 -13.696,-18.174 -13.696,-29.809 0,-11.46 4.028,-20.503 12.085,-27.124 8.056,-6.626 24.438,-12.535 49.145,-17.725 36.699,-7.881 64.004,-18.576 81.909,-32.092 17.902,-13.52 26.856,-31.648 26.856,-54.383 0,-25.781 -10.432,-46.64 -31.286,-62.573 -20.86,-15.937 -48.119,-23.901 -81.776,-23.901 -22.021,0 -41.806,2.551 -59.35,7.654 -17.549,5.102 -33.213,12.487 -46.997,22.155 l -0.269,66.333 h 39.746 l 9.937,-38.94 c 6.084,-5.552 14.367,-9.58 24.841,-12.085 10.473,-2.51 21.169,-3.76 32.092,-3.76 18.799,0 33.524,3.802 44.178,11.414 10.649,7.608 15.978,17.59 15.978,29.944 0,11.635 -4.431,21.215 -13.292,28.735 -8.864,7.519 -25.648,14.053 -50.355,19.604 -35.273,7.696 -61.86,18.169 -79.761,31.421 -17.905,13.247 -26.855,31.153 -26.855,53.711 0,23.633 10.07,43.775 30.213,60.425 20.14,16.65 46.325,24.976 78.551,24.976 22.022,0 41.802,-2.867 59.351,-8.594 17.544,-5.732 32.135,-13.696 43.774,-23.901 z"
               style="fill:#FFFFFF;fill-opacity:1;fill-rule:nonzero;stroke:none"
               id="path174"
                />
          </g>
        </g>
      </g>
    </g>
  </g>
</svg>
