<svg id="a04b81ca-e11b-4a2f-936a-cd028eeb9d0a" data-name="Capa 1" xmlns="http://www.w3.org/2000/svg" viewBox="0 0 341.98 235.86"><defs><style>.b400c634-fa33-496d-b3db-1ae0053142c0{fill:#FFFFFF;}</style></defs><title>excelencia_w</title><path class="b400c634-fa33-496d-b3db-1ae0053142c0" d="M287.75,225.62c2.62,7.26,5.32,14.47,7.87,21.75l-1.36-.12c-1.08-2.63-2-5.33-2.94-8h-7.14c-1,2.68-1.95,5.36-2.93,8h-1.42c2.64-7.23,5.24-14.47,7.92-21.69m0,3.89c-1.07,2.79-2.05,5.61-3.08,8.42h6.14C289.8,235.12,288.76,232.32,287.75,229.51Z" transform="translate(-1.16 -11.73)"/><path class="b400c634-fa33-496d-b3db-1ae0053142c0" d="M314.45,229.05a10.84,10.84,0,0,1,15-.18l-1.07.82a9.53,9.53,0,0,0-14.63,2.5A9.48,9.48,0,0,0,324.18,246a11.72,11.72,0,0,0,4.2-2.11l1,.84a11,11,0,0,1-7.64,2.84,10.78,10.78,0,0,1-7.3-18.51Z" transform="translate(-1.16 -11.73)"/><path class="b400c634-fa33-496d-b3db-1ae0053142c0" d="M1.17,226.28l1.21,0c0,3.44,0,6.87,0,10.31H11c0-3.44,0-6.87,0-10.3l1.34-.06v21.05H11q0-4.67,0-9.35c-2.88,0-5.76,0-8.65,0,0,3.13,0,6.25,0,9.36l-1.2,0C1.15,240.31,1.17,233.29,1.17,226.28Z" transform="translate(-1.16 -11.73)"/><path class="b400c634-fa33-496d-b3db-1ae0053142c0" d="M16.18,226.29c3,.2,6.49-.78,9,1.34A7,7,0,0,1,25.89,238a8.59,8.59,0,0,1-3.11,1.9q2.43,3.66,4.78,7.39H25.94c-1.55-2.44-3.14-4.85-4.67-7.3-1.25,0-2.51,0-3.76,0,0,2.45,0,4.89,0,7.34l-1.31,0c0-7,0-14,0-21m1.33,1.19v11.3c2.42,0,5.26.35,7.17-1.49a5.6,5.6,0,0,0,.1-8.24C22.87,227.14,20,227.51,17.51,227.48Z" transform="translate(-1.16 -11.73)"/><path class="b400c634-fa33-496d-b3db-1ae0053142c0" d="M37.81,226.29H48.4c0,.29,0,.9,0,1.2H39.14v8.65c3.08,0,6.16,0,9.25,0v1.32H39.14c0,2.84,0,5.68,0,8.53,3.08,0,6.16,0,9.25,0v1.32H37.81Z" transform="translate(-1.16 -11.73)"/><path class="b400c634-fa33-496d-b3db-1ae0053142c0" d="M51.5,226.29H53c1.56,2.71,3.14,5.42,4.68,8.15,1.53-2.73,3.15-5.41,4.68-8.14h1.56c-1.84,3.13-3.61,6.29-5.48,9.39,2.2,3.9,4.49,7.74,6.69,11.63H63.64c-2-3.42-4-6.84-5.94-10.28-1.94,3.44-4,6.83-5.9,10.27l-1.54,0c2.21-3.89,4.48-7.74,6.68-11.64Q54.18,231,51.5,226.29Z" transform="translate(-1.16 -11.73)"/><path class="b400c634-fa33-496d-b3db-1ae0053142c0" d="M71.33,226.7c3.8-1.45,8.58-.79,11.42,2.26l-1,.65c-1.68-1.09-3.48-2.2-5.55-2.27a9.47,9.47,0,0,0-2.41,18.76,9.7,9.7,0,0,0,8-2.31l.9,1.06a11.29,11.29,0,0,1-8.43,2.66,10.84,10.84,0,0,1-2.93-20.81Z" transform="translate(-1.16 -11.73)"/><path class="b400c634-fa33-496d-b3db-1ae0053142c0" d="M85.28,226.28H95.85v1.21q-4.63,0-9.25,0v8.64h9.25v1.33c-3.08,0-6.17,0-9.25,0V246c3.08,0,6.17,0,9.25,0v1.32H85.28Q85.26,236.8,85.28,226.28Z" transform="translate(-1.16 -11.73)"/><path class="b400c634-fa33-496d-b3db-1ae0053142c0" d="M99.94,226.28h1.2V246c2.72,0,5.45,0,8.17,0,0,.33,0,1,0,1.32H99.94Q99.93,236.8,99.94,226.28Z" transform="translate(-1.16 -11.73)"/><path class="b400c634-fa33-496d-b3db-1ae0053142c0" d="M111.83,226.28H113V246c2.73,0,5.46,0,8.19,0,0,.32,0,1,0,1.31h-9.36Z" transform="translate(-1.16 -11.73)"/><path class="b400c634-fa33-496d-b3db-1ae0053142c0" d="M123.49,226.28h10.58c0,.29,0,.89,0,1.19-3.12,0-6.24,0-9.36,0,0,2.9-.06,5.79,0,8.68,3.11-.06,6.22,0,9.33,0v1.32h-9.37c0,2.84,0,5.68,0,8.53,3.12,0,6.25,0,9.37,0,0,.33,0,1,0,1.31-3.53,0-7.06,0-10.58,0Q123.48,236.8,123.49,226.28Z" transform="translate(-1.16 -11.73)"/><path class="b400c634-fa33-496d-b3db-1ae0053142c0" d="M137.55,226.28H139l10.57,18.32c.05-6.11,0-12.21,0-18.32h1.32c0,7,0,14,0,21l-1.29,0c-3.6-6.17-7.14-12.36-10.73-18.53v18.5h-1.32Q137.53,236.8,137.55,226.28Z" transform="translate(-1.16 -11.73)"/><path class="b400c634-fa33-496d-b3db-1ae0053142c0" d="M160.28,226.82A11,11,0,0,1,172,228.88c-.28.2-.82.61-1.09.82a9.47,9.47,0,1,0-6.81,16.53A10,10,0,0,0,171,243.8c.29.35.59.69.89,1a11.32,11.32,0,0,1-8.82,2.62,10.83,10.83,0,0,1-2.83-20.64Z" transform="translate(-1.16 -11.73)"/><path class="b400c634-fa33-496d-b3db-1ae0053142c0" d="M174,226.28h10.58v1.19h-9.25q0,4.32,0,8.64h9.25c0,.34,0,1,0,1.33h-9.25V246h9.27c0,.33,0,1,0,1.32H174C173.94,240.3,174,233.29,174,226.28Z" transform="translate(-1.16 -11.73)"/><path class="b400c634-fa33-496d-b3db-1ae0053142c0" d="M194.62,226.28h1.32q0,10.53,0,21.05l-1.34-.07C194.65,240.27,194.6,233.27,194.62,226.28Z" transform="translate(-1.16 -11.73)"/><path class="b400c634-fa33-496d-b3db-1ae0053142c0" d="M201.59,226.28h1.48q5.31,9.22,10.65,18.44c0-6.15,0-12.3,0-18.45h1.2q0,10.51,0,21l-1.23,0c-3.62-6.18-7.16-12.41-10.78-18.6,0,6.19,0,12.39,0,18.58l-1.31,0C201.58,240.31,201.59,233.29,201.59,226.28Z" transform="translate(-1.16 -11.73)"/><path class="b400c634-fa33-496d-b3db-1ae0053142c0" d="M226.22,226.29c2.91.22,6.24-.75,8.76,1.17a7,7,0,0,1,1.39,10,8.09,8.09,0,0,1-3.59,2.41c1.63,2.45,3.21,4.93,4.82,7.39h-1.66q-2.34-3.66-4.7-7.33h-3.82c0,2.45,0,4.89,0,7.33h-1.19c0-7,0-14,0-21m1.2,1.19c0,3.77,0,7.53,0,11.3,2.45,0,5.32.36,7.26-1.51a5.56,5.56,0,0,0,.11-8.21C232.86,227.12,229.91,227.51,227.42,227.48Z" transform="translate(-1.16 -11.73)"/><path class="b400c634-fa33-496d-b3db-1ae0053142c0" d="M240.16,226.28h10.57v1.2c-3.08,0-6.16,0-9.25,0v8.65c3.09,0,6.17,0,9.25,0,0,.33,0,1,0,1.31h-9.25q0,4.26,0,8.53c3.08,0,6.17,0,9.25,0v1.32H240.16Q240.16,236.8,240.16,226.28Z" transform="translate(-1.16 -11.73)"/><path class="b400c634-fa33-496d-b3db-1ae0053142c0" d="M254.12,231.1a4.53,4.53,0,0,1,4.15-5.13,4.75,4.75,0,0,1,4.64,2.89l-1.17.53c-.74-1.37-2.26-2.53-3.89-2.06a3.22,3.22,0,0,0-1.8,5c1.88,2.18,5.17,2.28,7,4.51a6.29,6.29,0,1,1-10.71,5.41l1.13-.54c.47,2.46,2.64,4.71,5.28,4.49a5,5,0,0,0,4.66-6.1c-.57-2.47-3-3.88-5.2-4.7C256.34,234.71,254.36,233.29,254.12,231.1Z" transform="translate(-1.16 -11.73)"/><path class="b400c634-fa33-496d-b3db-1ae0053142c0" d="M267.92,226.28h10.59c0,.31,0,.92-.06,1.22-3.07,0-6.14,0-9.21,0v8.64h9.25c0,.33,0,1,0,1.33h-9.26V246c3.08,0,6.17,0,9.25,0v1.32H267.92Q267.91,236.8,267.92,226.28Z" transform="translate(-1.16 -11.73)"/><path class="b400c634-fa33-496d-b3db-1ae0053142c0" d="M297.83,226.28c2.93.23,6.27-.73,8.81,1.18a7,7,0,0,1,1.55,9.79,7.82,7.82,0,0,1-3.76,2.66c1.63,2.44,3.21,4.91,4.78,7.39h-1.62c-1.56-2.43-3.15-4.85-4.67-7.31l-3.76,0c0,2.45,0,4.9,0,7.35h-1.31c0-7,0-14,0-21m1.33,1.2v11.3c2.31-.05,5,.35,6.89-1.25a5.62,5.62,0,0,0,.41-8.45C304.55,227.14,301.63,227.51,299.16,227.48Z" transform="translate(-1.16 -11.73)"/><path class="b400c634-fa33-496d-b3db-1ae0053142c0" d="M332,226.28h1.2v10.33h8.66c0-3.44,0-6.89,0-10.33h1.33q0,10.5,0,21l-1.32,0c0-3.13,0-6.25,0-9.38h-8.65v9.37H332Z" transform="translate(-1.16 -11.73)"/><path class="b400c634-fa33-496d-b3db-1ae0053142c0" d="M111.78,11.74c6.67-.22,13.77,1.82,18.29,7,4.74,4.56,4.88,11.63,5.07,17.76q0,52.44,0,104.87c0,5.85,0,11.7-.52,17.53-.43,3.56-1,7.26-2.92,10.36a19.57,19.57,0,0,1-11.08,8,35.19,35.19,0,0,1-8.85,1.23Q111.76,95.1,111.78,11.74Z" transform="translate(-1.16 -11.73)"/><path class="b400c634-fa33-496d-b3db-1ae0053142c0" d="M142.45,77A46.54,46.54,0,0,1,168,82.73c10.68,6.13,19.3,16.34,22.35,28.4,1.42,5.33,1.48,10.89,1.46,16.37v51.07c-6.31.2-13.07-1.49-17.59-6.14A20,20,0,0,1,168,158.15c0-12,0-24.08,0-36.11a23.35,23.35,0,0,0-10.73-18.85c-4.33-3-9.7-3.8-14.85-3.51Q142.44,88.37,142.45,77Z" transform="translate(-1.16 -11.73)"/><path class="b400c634-fa33-496d-b3db-1ae0053142c0" d="M237.38,78.22a52.71,52.71,0,0,1,14-1.18V99.68a26.82,26.82,0,0,0-11.14,1.53c-8.1,3.34-14.23,11.48-14.46,20.34v34.63a28.91,28.91,0,0,1-.73,7A20.65,20.65,0,0,1,214.68,176a27.09,27.09,0,0,1-12.63,2.56q0-28.29,0-56.56a43.64,43.64,0,0,1,8.14-25.24C216.76,87.74,226.39,80.7,237.38,78.22Z" transform="translate(-1.16 -11.73)"/><path class="b400c634-fa33-496d-b3db-1ae0053142c0" d="M192.63,53.68a21.56,21.56,0,0,1,13.25,1.52A21.05,21.05,0,0,1,217.3,69a21.34,21.34,0,0,1-2.05,15.48,20.93,20.93,0,0,1-39.18-10.93C176.06,64.12,183.43,55.47,192.63,53.68Z" transform="translate(-1.16 -11.73)"/></svg>
