<svg id="ab1723a0-9fe0-41ba-a665-600e9e67e07e" data-name="Capa 1" xmlns="http://www.w3.org/2000/svg" viewBox="0 0 342.44 47.22"><defs><style>.e892fa8e-aa9b-41af-872e-9f36330797e0,.ec3456f3-4071-4f32-924e-17e203b66e29{fill:#FFFFFF;}.e892fa8e-aa9b-41af-872e-9f36330797e0{fill-rule:evenodd;}</style></defs><title>universia</title><path class="e892fa8e-aa9b-41af-872e-9f36330797e0" d="M11.6,2.85V28.5q0,11.11,8.86,11.11T29.32,28.5V2.85H39.76V28.73A28.69,28.69,0,0,1,38.41,38a15.46,15.46,0,0,1-4.5,6.29q-5.28,4.53-13.45,4.54c-5.42,0-9.88-1.52-13.41-4.54A16,16,0,0,1,2.45,38q-1.29-3.12-1.29-9.27V2.85Z" transform="translate(-1.16 -1.6)"/><path class="e892fa8e-aa9b-41af-872e-9f36330797e0" d="M49.24,2.85H59.72V7A17.18,17.18,0,0,1,72.06,1.6c5.25,0,9.35,1.65,12.29,4.91q3.81,4.19,3.81,13.63V47.55H77.68v-25c0-4.41-.63-7.45-1.86-9.14s-3.41-2.57-6.59-2.57c-3.47,0-5.92,1.14-7.38,3.4S59.72,20.41,59.72,26V47.55H49.24Z" transform="translate(-1.16 -1.6)"/><rect class="ec3456f3-4071-4f32-924e-17e203b66e29" x="95.94" y="1.24" width="10.44" height="44.7"/><path class="e892fa8e-aa9b-41af-872e-9f36330797e0" d="M205.7,27.62H173.32a13.52,13.52,0,0,0,3.62,8.78,11.09,11.09,0,0,0,8.21,3.21,10.76,10.76,0,0,0,6.44-1.84A26.48,26.48,0,0,0,197.31,31l8.8,4.86a34.41,34.41,0,0,1-4.31,5.92,23.71,23.71,0,0,1-4.87,4,20.16,20.16,0,0,1-5.61,2.3,28.13,28.13,0,0,1-6.55.73q-10.1,0-16.23-6.43t-6.12-17.16q0-10.6,5.93-17.17T184.22,1.6q10,0,15.77,6.3t5.75,17.29ZM195,19.18q-2.19-8.26-10.53-8.26a10.49,10.49,0,0,0-3.57.6,9.77,9.77,0,0,0-3.06,1.65,10.41,10.41,0,0,0-2.32,2.57A12,12,0,0,0,174,19.18Z" transform="translate(-1.16 -1.6)"/><path class="e892fa8e-aa9b-41af-872e-9f36330797e0" d="M213.67,2.85h10.44v4a19.69,19.69,0,0,1,5.1-4.08A11.74,11.74,0,0,1,234.6,1.6a17,17,0,0,1,8.62,2.66l-4.77,9.46a10,10,0,0,0-5.81-2.11q-8.53,0-8.53,12.76V47.55H213.67Z" transform="translate(-1.16 -1.6)"/><path class="e892fa8e-aa9b-41af-872e-9f36330797e0" d="M273.48,10.46,264.85,15q-2-4.12-5.05-4.13a3.43,3.43,0,0,0-2.46,1,3,3,0,0,0-1,2.38c0,1.72,2,3.41,6,5.1q8.29,3.54,11.18,6.52a11.12,11.12,0,0,1,2.87,8,14,14,0,0,1-4.83,10.83,16.52,16.52,0,0,1-11.31,4.13q-11.35,0-16.1-11l8.91-4.07a18.68,18.68,0,0,0,2.83,4.07,6.43,6.43,0,0,0,4.54,1.76c3.54,0,5.29-1.59,5.29-4.78,0-1.83-1.36-3.55-4.08-5.14l-3.15-1.52c-1.06-.48-2.12-1-3.2-1.5a19.55,19.55,0,0,1-6.4-4.41,10.78,10.78,0,0,1-2.37-7.21,12.73,12.73,0,0,1,4-9.64,14.3,14.3,0,0,1,10-3.81q8.67,0,12.89,8.86" transform="translate(-1.16 -1.6)"/><rect class="ec3456f3-4071-4f32-924e-17e203b66e29" x="283.19" y="1.24" width="10.43" height="44.7"/><path class="e892fa8e-aa9b-41af-872e-9f36330797e0" d="M329.15,30.9c0,2.58-.34,9.9-9.68,9.9-3.86,0-7.32-1.08-7.32-5.48s3.37-5.59,7.07-6.34,7.91-.74,9.93-2.5ZM314.49,17.74c.43-4.66,3.37-6.48,7.91-6.48,4.21,0,7.74.74,7.74,5.82,0,4.83-6.81,4.58-14.13,5.66S301.2,26.07,301.2,35.81c0,8.82,6.56,12.9,14.81,12.9,5.3,0,10.85-1.41,14.63-5.33a18,18,0,0,0,.85,4.17H343.6c-1.09-1.74-1.51-5.66-1.51-9.58V15.59c0-10.33-10.43-12.24-19.1-12.24-9.76,0-19.77,3.33-20.44,14.39Z" transform="translate(-1.16 -1.6)"/><polygon class="e892fa8e-aa9b-41af-872e-9f36330797e0" points="114.81 35.36 140.18 23.79 114.81 12.27 114.81 0.66 155.27 20.12 155.29 27.61 114.81 46.92 114.81 35.36"/></svg>
